# Blender v2.74 (sub 0) OBJ File: 'cubo.blend'
# www.blender.org
mtllib cubo3d.mtl
o BezierCurve
v -0.488542 1.000000 -2.000000
v -0.363253 1.000000 -2.105035
v -0.236227 1.000000 -2.173611
v -0.105729 1.000000 -2.210938
v 0.029977 1.000000 -2.222222
v 0.172627 1.000000 -2.212674
v 0.323958 1.000000 -2.187500
v 0.485706 1.000000 -2.151910
v 0.659606 1.000000 -2.111111
v 0.847396 1.000000 -2.070312
v 1.050810 1.000000 -2.034722
v 1.271585 1.000000 -2.009548
v 1.511458 1.000000 -2.000000
l 1 2
l 2 3
l 3 4
l 4 5
l 5 6
l 6 7
l 7 8
l 8 9
l 9 10
l 10 11
l 11 12
l 12 13
o Plane_Plane.003
v -4.000000 -1.000000 4.000000
v 4.000000 -1.000000 4.000000
v -4.000000 -1.000000 -4.000000
v 4.000000 -1.000000 -4.000000
vn 0.000000 1.000000 0.000000
g Plane_Plane.003_None
usemtl None
s off
f 14//1 15//1 17//1 16//1
o Cube
v 1.000000 -1.000000 -1.000000
v 1.000000 -1.000000 1.000000
v -1.000000 -1.000000 1.000000
v -1.000000 -1.000000 -1.000000
v 1.000000 1.000000 -0.999999
v 0.999999 1.000000 1.000001
v -1.000000 1.000000 1.000000
v -1.000000 1.000000 -1.000000
vt 0.007275 0.007275
vt 0.992725 0.007275
vt 0.992725 0.992725
vt 0.007275 0.992725
vn 0.577300 -0.577300 -0.577300
vn 0.577300 -0.577300 0.577300
vn -0.577300 -0.577300 0.577300
vn -0.577300 -0.577300 -0.577300
vn 0.577300 0.577300 -0.577300
vn -0.577300 0.577300 -0.577300
vn -0.577300 0.577300 0.577300
vn 0.577300 0.577300 0.577300
g Cube_Cube_Material.001
usemtl Wood
s 1
f 18/1/2 19/2/3 20/3/4 21/4/5
usemtl Stone
f 22/1/6 25/2/7 24/3/8 23/4/9
usemtl Wood
f 18/1/2 22/2/6 23/3/9 19/4/3
usemtl Stone
f 19/1/3 23/2/9 24/3/8 20/4/4
usemtl Wood
f 20/1/4 24/2/8 25/3/7 21/4/5
usemtl Wood
f 22/1/6 18/2/2 21/3/5 25/4/7
